<svg width="800" height="980" viewBox="0 0 800 980" fill="none" xmlns="http://www.w3.org/2000/svg">
<rect width="800" height="980" fill="#FFC0D5"/>
<path d="M448.471 441.278C480.541 473.348 505.731 507.742 520.46 537.937C538.208 574.319 540.725 605.083 527.936 617.871C514.609 631.198 481.97 628.566 443.277 609.132C414.024 594.439 381.31 569.325 350.868 538.882C319.656 507.67 293.668 474.548 279.045 444.739C260.542 407.017 258.807 374.886 271.879 361.813C284.563 349.129 314.466 351.002 350.453 368.383C380.86 383.07 416.089 408.896 448.471 441.278Z" stroke="#E91E63" stroke-width="24" stroke-miterlimit="10"/>
<path d="M381.774 423.424C425.575 411.664 467.953 407.026 501.47 409.35C541.853 412.151 569.76 425.34 574.449 442.807C579.337 461.009 560.75 487.969 524.586 511.779C497.244 529.779 459.146 545.572 417.566 556.737C374.936 568.182 333.26 574.148 300.131 571.922C258.21 569.107 229.509 554.558 224.715 536.703C220.065 519.378 236.625 494.41 269.66 471.919C297.572 452.915 337.544 435.299 381.774 423.424Z" stroke="#E91E63" stroke-width="24" stroke-miterlimit="10"/>
<path d="M332.983 472.296C344.67 428.475 361.815 389.442 380.568 361.566C403.162 327.979 428.526 310.388 446.001 315.048C464.211 319.905 478.287 349.471 480.853 392.694C482.794 425.373 477.449 466.266 466.355 507.865C454.981 550.514 439.337 589.6 420.863 617.191C397.488 652.104 370.55 669.703 352.687 664.939C335.353 660.316 321.994 633.499 319.006 593.646C316.482 559.973 321.182 516.546 332.983 472.296Z" stroke="#E91E63" stroke-width="24" stroke-miterlimit="10"/>
<path d="M400 523.242C399.314 523.242 398.734 523.004 398.259 522.529L373.562 498.703C373.298 498.492 372.935 498.149 372.473 497.674C372.011 497.199 371.279 496.335 370.276 495.081C369.274 493.829 368.376 492.542 367.585 491.223C366.794 489.904 366.088 488.307 365.467 486.434C364.848 484.561 364.538 482.74 364.538 480.973C364.538 475.168 366.213 470.63 369.564 467.357C372.915 464.085 377.546 462.449 383.456 462.449C385.092 462.449 386.761 462.733 388.462 463.3C390.164 463.868 391.748 464.633 393.212 465.596C394.676 466.559 395.937 467.463 396.992 468.307C398.047 469.152 399.05 470.048 399.999 470.999C400.949 470.048 401.951 469.152 403.007 468.307C404.063 467.463 405.322 466.559 406.787 465.596C408.252 464.633 409.834 463.868 411.537 463.3C413.238 462.733 414.908 462.449 416.543 462.449C422.454 462.449 427.084 464.085 430.435 467.357C433.787 470.629 435.463 475.168 435.463 480.973C435.463 486.804 432.441 492.74 426.399 498.783L401.742 522.53C401.267 523.005 400.686 523.242 400 523.242Z" fill="#E91E63"/>
</svg>
