<svg width="462" height="462" viewBox="0 0 462 462" fill="none" xmlns="http://www.w3.org/2000/svg">
<g clip-path="url(#clip0_3_3)">
<rect x="-28.875" y="-28.875" width="519.75" height="519.75" fill="white"/>
<path d="M231 0C103.626 0 0 103.613 0 230.971C0 358.387 103.626 462 231 462C358.374 462 462 358.387 462 230.971C462 103.671 358.374 0 231 0V0ZM231 406.342C134.325 406.342 55.6648 327.692 55.6648 231.029C55.6648 134.366 134.325 55.7157 231 55.7157C327.675 55.7157 406.335 134.366 406.335 231.029C406.335 327.692 327.675 406.342 231 406.342Z" fill="#BDD2EF"/>
<path d="M141.431 135.205C141.431 159.001 150.884 181.823 167.711 198.65C184.538 215.477 207.36 224.93 231.156 224.93C254.953 224.93 277.775 215.477 294.601 198.65C311.428 181.823 320.881 159.001 320.881 135.205C320.881 111.408 311.428 88.5863 294.601 71.7596C277.775 54.9329 254.953 45.4797 231.156 45.4797C207.36 45.4797 184.538 54.9329 167.711 71.7596C150.884 88.5863 141.431 111.408 141.431 135.205V135.205Z" fill="#2867CE"/>
<path d="M296.427 222.848C278.216 236.434 255.611 244.47 231.156 244.47C206.702 244.47 184.097 236.434 165.886 222.848C125.302 240.597 93.3313 274.302 77.9531 316.1C107.784 370.039 165.25 406.692 231.156 406.692C297.062 406.692 354.528 370.039 384.417 316.1C368.981 274.302 337.011 240.597 296.427 222.848V222.848Z" fill="#2867CE"/>
</g>
<defs>
<clipPath id="clip0_3_3">
<rect width="462" height="462" rx="231" fill="white"/>
</clipPath>
</defs>
</svg>
